@startuml

hide empty fields
hide empty methods
legend
|= |= line |
|<back:black>   </back>| inheritance |
|<back:green>   </back>| property reference |
|<back:blue>   </back>| discriminated class |
endlegend
interface AssociateRoleResourceIdentifier [[AssociateRoleResourceIdentifier.svg]] extends ResourceIdentifier {
    typeId: [[ReferenceTypeId.svg ReferenceTypeId]]
    id: String
    key: String
}
interface ResourceIdentifier [[ResourceIdentifier.svg]]  {
    typeId: [[ReferenceTypeId.svg ReferenceTypeId]]
    id: String
    key: String
}

interface AssociateRoleResourceIdentifier [[AssociateRoleResourceIdentifier.svg]]  {
    typeId: [[ReferenceTypeId.svg ReferenceTypeId]]
    id: String
    key: String
}
interface AssociateRoleAssignment [[AssociateRoleAssignment.svg]]  {
    associateRole: [[AssociateRoleResourceIdentifier.svg AssociateRoleResourceIdentifier]]
}
interface AssociateRoleAssignmentDraft [[AssociateRoleAssignmentDraft.svg]]  {
    associateRole: [[AssociateRoleResourceIdentifier.svg AssociateRoleResourceIdentifier]]
}
AssociateRoleResourceIdentifier --> AssociateRoleResourceIdentifier #blue;text:blue : "typeId : associate-role"
AssociateRoleResourceIdentifier --> AssociateRoleAssignment #green;text:green : "associateRole"
AssociateRoleResourceIdentifier --> AssociateRoleAssignmentDraft #green;text:green : "associateRole"
@enduml
