@startuml

hide empty fields
hide empty methods
legend
|= |= line |
|<back:black>   </back>| inheritance |
|<back:green>   </back>| property reference |
|<back:blue>   </back>| discriminated class |
endlegend
interface AssociateDraft [[AssociateDraft.svg]]  {
    associateRoleAssignments: [[AssociateRoleAssignment.svg List<AssociateRoleAssignment>]]
    roles: [[AssociateRoleDeprecated.svg List<AssociateRoleDeprecated>]]
    customer: [[CustomerResourceIdentifier.svg CustomerResourceIdentifier]]
}



interface BusinessUnitDraft [[BusinessUnitDraft.svg]]  {
    key: String
    status: [[BusinessUnitStatus.svg BusinessUnitStatus]]
    stores: [[StoreResourceIdentifier.svg List<StoreResourceIdentifier>]]
    storeMode: [[BusinessUnitStoreMode.svg BusinessUnitStoreMode]]
    unitType: [[BusinessUnitType.svg BusinessUnitType]]
    name: String
    contactEmail: String
    associates: [[AssociateDraft.svg List<AssociateDraft>]]
    addresses: [[BaseAddress.svg List<BaseAddress>]]
    shippingAddresses: [[Integer.svg List<Integer>]]
    defaultShippingAddress: Integer
    billingAddresses: [[Integer.svg List<Integer>]]
    defaultBillingAddress: Integer
    custom: [[CustomFieldsDraft.svg CustomFieldsDraft]]
}
interface BusinessUnitSetAssociatesAction [[BusinessUnitSetAssociatesAction.svg]]  {
    action: String
    associates: [[AssociateDraft.svg List<AssociateDraft>]]
}
interface BusinessUnitAddAssociateAction [[BusinessUnitAddAssociateAction.svg]]  {
    action: String
    associate: [[AssociateDraft.svg AssociateDraft]]
}
interface BusinessUnitChangeAssociateAction [[BusinessUnitChangeAssociateAction.svg]]  {
    action: String
    associate: [[AssociateDraft.svg AssociateDraft]]
}
interface MyBusinessUnitChangeAssociateAction [[MyBusinessUnitChangeAssociateAction.svg]]  {
    action: String
    associate: [[AssociateDraft.svg AssociateDraft]]
}

AssociateDraft --> BusinessUnitDraft #green;text:green : "associates"
AssociateDraft --> BusinessUnitSetAssociatesAction #green;text:green : "associates"
AssociateDraft --> BusinessUnitAddAssociateAction #green;text:green : "associate"
AssociateDraft --> BusinessUnitChangeAssociateAction #green;text:green : "associate"
AssociateDraft --> MyBusinessUnitChangeAssociateAction #green;text:green : "associate"
@enduml
