@startuml

hide methods
enum AssociateRoleDeprecated {
    ADMIN
    BUYER
}
interface Associate [[Associate.svg]]  {
    associateRoleAssignments: [[AssociateRoleAssignment.svg List<AssociateRoleAssignment>]]
    roles: [[AssociateRoleDeprecated.svg List<AssociateRoleDeprecated>]]
    customer: [[CustomerReference.svg CustomerReference]]
}
interface AssociateDraft [[AssociateDraft.svg]]  {
    associateRoleAssignments: [[AssociateRoleAssignment.svg List<AssociateRoleAssignment>]]
    roles: [[AssociateRoleDeprecated.svg List<AssociateRoleDeprecated>]]
    customer: [[CustomerResourceIdentifier.svg CustomerResourceIdentifier]]
}
AssociateRoleDeprecated --> Associate #green;text:green : "roles"
AssociateRoleDeprecated --> AssociateDraft #green;text:green : "roles"
@enduml
