@startuml

hide empty fields
hide empty methods
legend
|= |= line |
|<back:black>   </back>| inheritance |
|<back:green>   </back>| property reference |
|<back:blue>   </back>| discriminated class |
endlegend
interface CustomFields [[CustomFields.svg]]  {
    type: [[TypeReference.svg TypeReference]]
    fields: [[FieldContainer.svg FieldContainer]]
}



interface Payment [[Payment.svg]]  {
    id: String
    version: Long
    createdAt: DateTime
    lastModifiedAt: DateTime
    lastModifiedBy: [[LastModifiedBy.svg LastModifiedBy]]
    createdBy: [[CreatedBy.svg CreatedBy]]
    customer: [[CustomerReference.svg CustomerReference]]
    anonymousId: String
    externalId: String
    interfaceId: String
    amountPlanned: [[CentPrecisionMoney.svg CentPrecisionMoney]]
    amountAuthorized: [[TypedMoney.svg TypedMoney]]
    authorizedUntil: String
    amountPaid: [[TypedMoney.svg TypedMoney]]
    amountRefunded: [[TypedMoney.svg TypedMoney]]
    paymentMethodInfo: [[PaymentMethodInfo.svg PaymentMethodInfo]]
    paymentStatus: [[PaymentStatus.svg PaymentStatus]]
    transactions: [[Transaction.svg List<Transaction>]]
    interfaceInteractions: [[CustomFields.svg List<CustomFields>]]
    custom: [[CustomFields.svg CustomFields]]
    key: String
}
interface AssociateRole [[AssociateRole.svg]]  {
    id: String
    version: Long
    createdAt: DateTime
    lastModifiedAt: DateTime
    lastModifiedBy: [[LastModifiedBy.svg LastModifiedBy]]
    createdBy: [[CreatedBy.svg CreatedBy]]
    key: String
    buyerAssignable: Boolean
    name: String
    permissions: [[Permission.svg List<Permission>]]
    custom: [[CustomFields.svg CustomFields]]
}
interface BusinessUnit [[BusinessUnit.svg]]  {
    id: String
    version: Long
    createdAt: DateTime
    lastModifiedAt: DateTime
    lastModifiedBy: [[LastModifiedBy.svg LastModifiedBy]]
    createdBy: [[CreatedBy.svg CreatedBy]]
    key: String
    status: [[BusinessUnitStatus.svg BusinessUnitStatus]]
    stores: [[StoreKeyReference.svg List<StoreKeyReference>]]
    storeMode: [[BusinessUnitStoreMode.svg BusinessUnitStoreMode]]
    unitType: [[BusinessUnitType.svg BusinessUnitType]]
    name: String
    contactEmail: String
    custom: [[CustomFields.svg CustomFields]]
    addresses: [[Address.svg List<Address>]]
    shippingAddressIds: [[String.svg List<String>]]
    defaultShippingAddressId: String
    billingAddressIds: [[String.svg List<String>]]
    defaultBillingAddressId: String
    associates: [[Associate.svg List<Associate>]]
    parentUnit: [[BusinessUnitKeyReference.svg BusinessUnitKeyReference]]
    topLevelUnit: [[BusinessUnitKeyReference.svg BusinessUnitKeyReference]]
}
interface CartDiscount [[CartDiscount.svg]]  {
    id: String
    version: Long
    createdAt: DateTime
    lastModifiedAt: DateTime
    lastModifiedBy: [[LastModifiedBy.svg LastModifiedBy]]
    createdBy: [[CreatedBy.svg CreatedBy]]
    name: [[LocalizedString.svg LocalizedString]]
    key: String
    description: [[LocalizedString.svg LocalizedString]]
    value: [[CartDiscountValue.svg CartDiscountValue]]
    cartPredicate: String
    target: [[CartDiscountTarget.svg CartDiscountTarget]]
    sortOrder: String
    isActive: Boolean
    validFrom: DateTime
    validUntil: DateTime
    requiresDiscountCode: Boolean
    references: [[Reference.svg List<Reference>]]
    stackingMode: [[StackingMode.svg StackingMode]]
    custom: [[CustomFields.svg CustomFields]]
}
interface Cart [[Cart.svg]]  {
    id: String
    version: Long
    createdAt: DateTime
    lastModifiedAt: DateTime
    key: String
    lastModifiedBy: [[LastModifiedBy.svg LastModifiedBy]]
    createdBy: [[CreatedBy.svg CreatedBy]]
    customerId: String
    customerEmail: String
    anonymousId: String
    businessUnit: [[BusinessUnitKeyReference.svg BusinessUnitKeyReference]]
    store: [[StoreKeyReference.svg StoreKeyReference]]
    lineItems: [[LineItem.svg List<LineItem>]]
    customLineItems: [[CustomLineItem.svg List<CustomLineItem>]]
    totalPrice: [[TypedMoney.svg TypedMoney]]
    taxedPrice: [[TaxedPrice.svg TaxedPrice]]
    taxedShippingPrice: [[TaxedPrice.svg TaxedPrice]]
    cartState: [[CartState.svg CartState]]
    shippingAddress: [[Address.svg Address]]
    billingAddress: [[Address.svg Address]]
    shippingMode: [[ShippingMode.svg ShippingMode]]
    shipping: [[Shipping.svg List<Shipping>]]
    inventoryMode: [[InventoryMode.svg InventoryMode]]
    taxMode: [[TaxMode.svg TaxMode]]
    taxRoundingMode: [[RoundingMode.svg RoundingMode]]
    taxCalculationMode: [[TaxCalculationMode.svg TaxCalculationMode]]
    customerGroup: [[CustomerGroupReference.svg CustomerGroupReference]]
    country: String
    shippingInfo: [[ShippingInfo.svg ShippingInfo]]
    discountCodes: [[DiscountCodeInfo.svg List<DiscountCodeInfo>]]
    directDiscounts: [[DirectDiscount.svg List<DirectDiscount>]]
    custom: [[CustomFields.svg CustomFields]]
    paymentInfo: [[PaymentInfo.svg PaymentInfo]]
    locale: String
    deleteDaysAfterLastModification: Integer
    refusedGifts: [[CartDiscountReference.svg List<CartDiscountReference>]]
    origin: [[CartOrigin.svg CartOrigin]]
    shippingRateInput: [[ShippingRateInput.svg ShippingRateInput]]
    itemShippingAddresses: [[Address.svg List<Address>]]
    totalLineItemQuantity: Long
}
interface CustomLineItem [[CustomLineItem.svg]]  {
    id: String
    name: [[LocalizedString.svg LocalizedString]]
    money: [[TypedMoney.svg TypedMoney]]
    taxedPrice: [[TaxedItemPrice.svg TaxedItemPrice]]
    totalPrice: [[TypedMoney.svg TypedMoney]]
    slug: String
    quantity: Long
    state: [[ItemState.svg List<ItemState>]]
    taxCategory: [[TaxCategoryReference.svg TaxCategoryReference]]
    taxRate: [[TaxRate.svg TaxRate]]
    discountedPricePerQuantity: [[DiscountedLineItemPriceForQuantity.svg List<DiscountedLineItemPriceForQuantity>]]
    custom: [[CustomFields.svg CustomFields]]
    shippingDetails: [[ItemShippingDetails.svg ItemShippingDetails]]
    priceMode: [[CustomLineItemPriceMode.svg CustomLineItemPriceMode]]
}
interface LineItem [[LineItem.svg]]  {
    id: String
    productId: String
    productKey: String
    name: [[LocalizedString.svg LocalizedString]]
    productSlug: [[LocalizedString.svg LocalizedString]]
    productType: [[ProductTypeReference.svg ProductTypeReference]]
    variant: [[ProductVariant.svg ProductVariant]]
    price: [[Price.svg Price]]
    taxedPrice: [[TaxedItemPrice.svg TaxedItemPrice]]
    taxedPricePortions: [[MethodTaxedPrice.svg List<MethodTaxedPrice>]]
    totalPrice: [[TypedMoney.svg TypedMoney]]
    quantity: Long
    addedAt: DateTime
    state: [[ItemState.svg List<ItemState>]]
    taxRate: [[TaxRate.svg TaxRate]]
    perMethodTaxRate: [[MethodTaxRate.svg List<MethodTaxRate>]]
    supplyChannel: [[ChannelReference.svg ChannelReference]]
    distributionChannel: [[ChannelReference.svg ChannelReference]]
    discountedPricePerQuantity: [[DiscountedLineItemPriceForQuantity.svg List<DiscountedLineItemPriceForQuantity>]]
    priceMode: [[LineItemPriceMode.svg LineItemPriceMode]]
    lineItemMode: [[LineItemMode.svg LineItemMode]]
    custom: [[CustomFields.svg CustomFields]]
    inventoryMode: [[InventoryMode.svg InventoryMode]]
    shippingDetails: [[ItemShippingDetails.svg ItemShippingDetails]]
    lastModifiedAt: DateTime
}
interface Shipping [[Shipping.svg]]  {
    shippingKey: String
    shippingInfo: [[ShippingInfo.svg ShippingInfo]]
    shippingAddress: [[Address.svg Address]]
    shippingRateInput: [[ShippingRateInput.svg ShippingRateInput]]
    shippingCustomFields: [[CustomFields.svg CustomFields]]
}
interface Category [[Category.svg]]  {
    id: String
    version: Long
    createdAt: DateTime
    lastModifiedAt: DateTime
    lastModifiedBy: [[LastModifiedBy.svg LastModifiedBy]]
    createdBy: [[CreatedBy.svg CreatedBy]]
    name: [[LocalizedString.svg LocalizedString]]
    slug: [[LocalizedString.svg LocalizedString]]
    description: [[LocalizedString.svg LocalizedString]]
    ancestors: [[CategoryReference.svg List<CategoryReference>]]
    parent: [[CategoryReference.svg CategoryReference]]
    orderHint: String
    externalId: String
    metaTitle: [[LocalizedString.svg LocalizedString]]
    metaDescription: [[LocalizedString.svg LocalizedString]]
    metaKeywords: [[LocalizedString.svg LocalizedString]]
    custom: [[CustomFields.svg CustomFields]]
    assets: [[Asset.svg List<Asset>]]
    key: String
}
interface Channel [[Channel.svg]]  {
    id: String
    version: Long
    createdAt: DateTime
    lastModifiedAt: DateTime
    lastModifiedBy: [[LastModifiedBy.svg LastModifiedBy]]
    createdBy: [[CreatedBy.svg CreatedBy]]
    key: String
    roles: [[ChannelRoleEnum.svg List<ChannelRoleEnum>]]
    name: [[LocalizedString.svg LocalizedString]]
    description: [[LocalizedString.svg LocalizedString]]
    address: [[Address.svg Address]]
    reviewRatingStatistics: [[ReviewRatingStatistics.svg ReviewRatingStatistics]]
    custom: [[CustomFields.svg CustomFields]]
    geoLocation: [[GeoJson.svg GeoJson]]
}
interface Address [[Address.svg]]  {
    id: String
    key: String
    country: String
    title: String
    salutation: String
    firstName: String
    lastName: String
    streetName: String
    streetNumber: String
    additionalStreetInfo: String
    postalCode: String
    city: String
    region: String
    state: String
    company: String
    department: String
    building: String
    apartment: String
    pOBox: String
    phone: String
    mobile: String
    email: String
    fax: String
    additionalAddressInfo: String
    externalId: String
    custom: [[CustomFields.svg CustomFields]]
}
interface Asset [[Asset.svg]]  {
    id: String
    sources: [[AssetSource.svg List<AssetSource>]]
    name: [[LocalizedString.svg LocalizedString]]
    description: [[LocalizedString.svg LocalizedString]]
    tags: [[String.svg List<String>]]
    custom: [[CustomFields.svg CustomFields]]
    key: String
}
interface Price [[Price.svg]]  {
    id: String
    key: String
    value: [[TypedMoney.svg TypedMoney]]
    country: String
    customerGroup: [[CustomerGroupReference.svg CustomerGroupReference]]
    channel: [[ChannelReference.svg ChannelReference]]
    validFrom: DateTime
    validUntil: DateTime
    discounted: [[DiscountedPrice.svg DiscountedPrice]]
    tiers: [[PriceTier.svg List<PriceTier>]]
    custom: [[CustomFields.svg CustomFields]]
}
interface QueryPrice [[QueryPrice.svg]]  {
    id: String
    value: [[Money.svg Money]]
    country: String
    customerGroup: [[CustomerGroupReference.svg CustomerGroupReference]]
    channel: [[ChannelReference.svg ChannelReference]]
    validFrom: DateTime
    validUntil: DateTime
    discounted: [[DiscountedPriceDraft.svg DiscountedPriceDraft]]
    custom: [[CustomFields.svg CustomFields]]
    tiers: [[PriceTierDraft.svg List<PriceTierDraft>]]
}
interface ScopedPrice [[ScopedPrice.svg]]  {
    id: String
    value: [[TypedMoney.svg TypedMoney]]
    currentValue: [[TypedMoney.svg TypedMoney]]
    country: String
    customerGroup: [[CustomerGroupReference.svg CustomerGroupReference]]
    channel: [[ChannelReference.svg ChannelReference]]
    validFrom: DateTime
    validUntil: DateTime
    discounted: [[DiscountedPrice.svg DiscountedPrice]]
    custom: [[CustomFields.svg CustomFields]]
}
interface CustomerGroup [[CustomerGroup.svg]]  {
    id: String
    version: Long
    createdAt: DateTime
    lastModifiedAt: DateTime
    lastModifiedBy: [[LastModifiedBy.svg LastModifiedBy]]
    createdBy: [[CreatedBy.svg CreatedBy]]
    key: String
    name: String
    custom: [[CustomFields.svg CustomFields]]
}
interface Customer [[Customer.svg]]  {
    id: String
    version: Long
    createdAt: DateTime
    lastModifiedAt: DateTime
    key: String
    customerNumber: String
    externalId: String
    lastModifiedBy: [[LastModifiedBy.svg LastModifiedBy]]
    createdBy: [[CreatedBy.svg CreatedBy]]
    email: String
    password: String
    firstName: String
    lastName: String
    middleName: String
    title: String
    dateOfBirth: Date
    companyName: String
    vatId: String
    addresses: [[Address.svg List<Address>]]
    defaultShippingAddressId: String
    shippingAddressIds: [[String.svg List<String>]]
    defaultBillingAddressId: String
    billingAddressIds: [[String.svg List<String>]]
    isEmailVerified: Boolean
    customerGroup: [[CustomerGroupReference.svg CustomerGroupReference]]
    custom: [[CustomFields.svg CustomFields]]
    locale: String
    salutation: String
    stores: [[StoreKeyReference.svg List<StoreKeyReference>]]
    authenticationMode: [[AuthenticationMode.svg AuthenticationMode]]
}
interface DiscountCode [[DiscountCode.svg]]  {
    id: String
    version: Long
    createdAt: DateTime
    lastModifiedAt: DateTime
    lastModifiedBy: [[LastModifiedBy.svg LastModifiedBy]]
    createdBy: [[CreatedBy.svg CreatedBy]]
    name: [[LocalizedString.svg LocalizedString]]
    description: [[LocalizedString.svg LocalizedString]]
    code: String
    cartDiscounts: [[CartDiscountReference.svg List<CartDiscountReference>]]
    cartPredicate: String
    isActive: Boolean
    references: [[Reference.svg List<Reference>]]
    maxApplications: Long
    maxApplicationsPerCustomer: Long
    custom: [[CustomFields.svg CustomFields]]
    groups: [[String.svg List<String>]]
    validFrom: DateTime
    validUntil: DateTime
    applicationVersion: Long
}
interface InventoryEntry [[InventoryEntry.svg]]  {
    id: String
    version: Long
    createdAt: DateTime
    lastModifiedAt: DateTime
    lastModifiedBy: [[LastModifiedBy.svg LastModifiedBy]]
    createdBy: [[CreatedBy.svg CreatedBy]]
    key: String
    sku: String
    supplyChannel: [[ChannelReference.svg ChannelReference]]
    quantityOnStock: Long
    availableQuantity: Long
    restockableInDays: Long
    expectedDelivery: DateTime
    custom: [[CustomFields.svg CustomFields]]
}
interface MyBusinessUnitDraft [[MyBusinessUnitDraft.svg]]  {
    key: String
    unitType: [[BusinessUnitType.svg BusinessUnitType]]
    name: String
    contactEmail: String
    custom: [[CustomFields.svg CustomFields]]
    addresses: [[BaseAddress.svg List<BaseAddress>]]
    shippingAddresses: [[Integer.svg List<Integer>]]
    defaultShippingAddress: Integer
    billingAddresses: [[Integer.svg List<Integer>]]
    defaultBillingAddress: Integer
}
interface MyPayment [[MyPayment.svg]]  {
    id: String
    version: Long
    customer: [[CustomerReference.svg CustomerReference]]
    anonymousId: String
    amountPlanned: [[CentPrecisionMoney.svg CentPrecisionMoney]]
    paymentMethodInfo: [[PaymentMethodInfo.svg PaymentMethodInfo]]
    transactions: [[Transaction.svg List<Transaction>]]
    custom: [[CustomFields.svg CustomFields]]
}
interface PaymentInteractionAddedMessage [[PaymentInteractionAddedMessage.svg]]  {
    id: String
    version: Long
    createdAt: DateTime
    lastModifiedAt: DateTime
    lastModifiedBy: [[LastModifiedBy.svg LastModifiedBy]]
    createdBy: [[CreatedBy.svg CreatedBy]]
    sequenceNumber: Long
    resource: [[Reference.svg Reference]]
    resourceVersion: Long
    type: String
    resourceUserProvidedIdentifiers: [[UserProvidedIdentifiers.svg UserProvidedIdentifiers]]
    interaction: [[CustomFields.svg CustomFields]]
}
interface StoreCreatedMessage [[StoreCreatedMessage.svg]]  {
    id: String
    version: Long
    createdAt: DateTime
    lastModifiedAt: DateTime
    lastModifiedBy: [[LastModifiedBy.svg LastModifiedBy]]
    createdBy: [[CreatedBy.svg CreatedBy]]
    sequenceNumber: Long
    resource: [[Reference.svg Reference]]
    resourceVersion: Long
    type: String
    resourceUserProvidedIdentifiers: [[UserProvidedIdentifiers.svg UserProvidedIdentifiers]]
    name: [[LocalizedString.svg LocalizedString]]
    languages: [[String.svg List<String>]]
    countries: [[StoreCountry.svg List<StoreCountry>]]
    distributionChannels: [[ChannelReference.svg List<ChannelReference>]]
    supplyChannels: [[ChannelReference.svg List<ChannelReference>]]
    productSelections: [[ProductSelectionSetting.svg List<ProductSelectionSetting>]]
    custom: [[CustomFields.svg CustomFields]]
}
interface PaymentInteractionAddedMessagePayload [[PaymentInteractionAddedMessagePayload.svg]]  {
    type: String
    interaction: [[CustomFields.svg CustomFields]]
}
interface StoreCreatedMessagePayload [[StoreCreatedMessagePayload.svg]]  {
    type: String
    name: [[LocalizedString.svg LocalizedString]]
    languages: [[String.svg List<String>]]
    countries: [[StoreCountry.svg List<StoreCountry>]]
    distributionChannels: [[ChannelReference.svg List<ChannelReference>]]
    supplyChannels: [[ChannelReference.svg List<ChannelReference>]]
    productSelections: [[ProductSelectionSetting.svg List<ProductSelectionSetting>]]
    custom: [[CustomFields.svg CustomFields]]
}
interface OrderEdit [[OrderEdit.svg]]  {
    id: String
    version: Long
    createdAt: DateTime
    lastModifiedAt: DateTime
    lastModifiedBy: [[LastModifiedBy.svg LastModifiedBy]]
    createdBy: [[CreatedBy.svg CreatedBy]]
    key: String
    resource: [[OrderReference.svg OrderReference]]
    stagedActions: [[StagedOrderUpdateAction.svg List<StagedOrderUpdateAction>]]
    custom: [[CustomFields.svg CustomFields]]
    result: [[OrderEditResult.svg OrderEditResult]]
    comment: String
}
interface Delivery [[Delivery.svg]]  {
    id: String
    createdAt: DateTime
    items: [[DeliveryItem.svg List<DeliveryItem>]]
    parcels: [[Parcel.svg List<Parcel>]]
    address: [[Address.svg Address]]
    custom: [[CustomFields.svg CustomFields]]
}
interface Order [[Order.svg]]  {
    id: String
    version: Long
    createdAt: DateTime
    lastModifiedAt: DateTime
    lastModifiedBy: [[LastModifiedBy.svg LastModifiedBy]]
    createdBy: [[CreatedBy.svg CreatedBy]]
    completedAt: DateTime
    orderNumber: String
    customerId: String
    customerEmail: String
    anonymousId: String
    businessUnit: [[BusinessUnitKeyReference.svg BusinessUnitKeyReference]]
    store: [[StoreKeyReference.svg StoreKeyReference]]
    lineItems: [[LineItem.svg List<LineItem>]]
    customLineItems: [[CustomLineItem.svg List<CustomLineItem>]]
    totalPrice: [[TypedMoney.svg TypedMoney]]
    taxedPrice: [[TaxedPrice.svg TaxedPrice]]
    taxedShippingPrice: [[TaxedPrice.svg TaxedPrice]]
    shippingAddress: [[Address.svg Address]]
    billingAddress: [[Address.svg Address]]
    shippingMode: [[ShippingMode.svg ShippingMode]]
    shipping: [[Shipping.svg List<Shipping>]]
    taxMode: [[TaxMode.svg TaxMode]]
    taxRoundingMode: [[RoundingMode.svg RoundingMode]]
    customerGroup: [[CustomerGroupReference.svg CustomerGroupReference]]
    country: String
    orderState: [[OrderState.svg OrderState]]
    state: [[StateReference.svg StateReference]]
    shipmentState: [[ShipmentState.svg ShipmentState]]
    paymentState: [[PaymentState.svg PaymentState]]
    shippingInfo: [[ShippingInfo.svg ShippingInfo]]
    syncInfo: [[SyncInfo.svg List<SyncInfo>]]
    returnInfo: [[ReturnInfo.svg List<ReturnInfo>]]
    purchaseOrderNumber: String
    discountCodes: [[DiscountCodeInfo.svg List<DiscountCodeInfo>]]
    lastMessageSequenceNumber: Long
    cart: [[CartReference.svg CartReference]]
    quote: [[QuoteReference.svg QuoteReference]]
    custom: [[CustomFields.svg CustomFields]]
    paymentInfo: [[PaymentInfo.svg PaymentInfo]]
    locale: String
    inventoryMode: [[InventoryMode.svg InventoryMode]]
    origin: [[CartOrigin.svg CartOrigin]]
    taxCalculationMode: [[TaxCalculationMode.svg TaxCalculationMode]]
    shippingRateInput: [[ShippingRateInput.svg ShippingRateInput]]
    itemShippingAddresses: [[Address.svg List<Address>]]
    refusedGifts: [[CartDiscountReference.svg List<CartDiscountReference>]]
}
interface Parcel [[Parcel.svg]]  {
    id: String
    createdAt: DateTime
    measurements: [[ParcelMeasurements.svg ParcelMeasurements]]
    trackingData: [[TrackingData.svg TrackingData]]
    items: [[DeliveryItem.svg List<DeliveryItem>]]
    custom: [[CustomFields.svg CustomFields]]
}
interface ReturnItem [[ReturnItem.svg]]  {
    id: String
    quantity: Long
    type: String
    comment: String
    shipmentState: [[ReturnShipmentState.svg ReturnShipmentState]]
    paymentState: [[ReturnPaymentState.svg ReturnPaymentState]]
    custom: [[CustomFields.svg CustomFields]]
    lastModifiedAt: DateTime
    createdAt: DateTime
}
interface Transaction [[Transaction.svg]]  {
    id: String
    timestamp: DateTime
    type: [[TransactionType.svg TransactionType]]
    amount: [[CentPrecisionMoney.svg CentPrecisionMoney]]
    interactionId: String
    state: [[TransactionState.svg TransactionState]]
    custom: [[CustomFields.svg CustomFields]]
}
interface ProductSelection [[ProductSelection.svg]]  {
    id: String
    version: Long
    createdAt: DateTime
    lastModifiedAt: DateTime
    lastModifiedBy: [[LastModifiedBy.svg LastModifiedBy]]
    createdBy: [[CreatedBy.svg CreatedBy]]
    key: String
    name: [[LocalizedString.svg LocalizedString]]
    productCount: Integer
    type: [[ProductSelectionTypeEnum.svg ProductSelectionTypeEnum]]
    custom: [[CustomFields.svg CustomFields]]
}
interface QuoteRequest [[QuoteRequest.svg]]  {
    id: String
    version: Long
    createdAt: DateTime
    lastModifiedAt: DateTime
    key: String
    lastModifiedBy: [[LastModifiedBy.svg LastModifiedBy]]
    createdBy: [[CreatedBy.svg CreatedBy]]
    quoteRequestState: [[QuoteRequestState.svg QuoteRequestState]]
    comment: String
    customer: [[CustomerReference.svg CustomerReference]]
    customerGroup: [[CustomerGroupReference.svg CustomerGroupReference]]
    store: [[StoreKeyReference.svg StoreKeyReference]]
    lineItems: [[LineItem.svg List<LineItem>]]
    customLineItems: [[CustomLineItem.svg List<CustomLineItem>]]
    totalPrice: [[TypedMoney.svg TypedMoney]]
    taxedPrice: [[TaxedPrice.svg TaxedPrice]]
    shippingAddress: [[Address.svg Address]]
    billingAddress: [[Address.svg Address]]
    inventoryMode: [[InventoryMode.svg InventoryMode]]
    taxMode: [[TaxMode.svg TaxMode]]
    taxRoundingMode: [[RoundingMode.svg RoundingMode]]
    taxCalculationMode: [[TaxCalculationMode.svg TaxCalculationMode]]
    country: String
    shippingInfo: [[ShippingInfo.svg ShippingInfo]]
    paymentInfo: [[PaymentInfo.svg PaymentInfo]]
    shippingRateInput: [[ShippingRateInput.svg ShippingRateInput]]
    itemShippingAddresses: [[Address.svg List<Address>]]
    directDiscounts: [[DirectDiscount.svg List<DirectDiscount>]]
    custom: [[CustomFields.svg CustomFields]]
    state: [[StateReference.svg StateReference]]
    purchaseOrderNumber: String
    businessUnit: [[BusinessUnitKeyReference.svg BusinessUnitKeyReference]]
}
interface Quote [[Quote.svg]]  {
    id: String
    version: Long
    createdAt: DateTime
    lastModifiedAt: DateTime
    key: String
    lastModifiedBy: [[LastModifiedBy.svg LastModifiedBy]]
    createdBy: [[CreatedBy.svg CreatedBy]]
    quoteRequest: [[QuoteRequestReference.svg QuoteRequestReference]]
    stagedQuote: [[StagedQuoteReference.svg StagedQuoteReference]]
    customer: [[CustomerReference.svg CustomerReference]]
    customerGroup: [[CustomerGroupReference.svg CustomerGroupReference]]
    validTo: DateTime
    sellerComment: String
    buyerComment: String
    store: [[StoreKeyReference.svg StoreKeyReference]]
    lineItems: [[LineItem.svg List<LineItem>]]
    customLineItems: [[CustomLineItem.svg List<CustomLineItem>]]
    totalPrice: [[TypedMoney.svg TypedMoney]]
    taxedPrice: [[TaxedPrice.svg TaxedPrice]]
    shippingAddress: [[Address.svg Address]]
    billingAddress: [[Address.svg Address]]
    inventoryMode: [[InventoryMode.svg InventoryMode]]
    taxMode: [[TaxMode.svg TaxMode]]
    taxRoundingMode: [[RoundingMode.svg RoundingMode]]
    taxCalculationMode: [[TaxCalculationMode.svg TaxCalculationMode]]
    country: String
    shippingInfo: [[ShippingInfo.svg ShippingInfo]]
    paymentInfo: [[PaymentInfo.svg PaymentInfo]]
    shippingRateInput: [[ShippingRateInput.svg ShippingRateInput]]
    itemShippingAddresses: [[Address.svg List<Address>]]
    directDiscounts: [[DirectDiscount.svg List<DirectDiscount>]]
    custom: [[CustomFields.svg CustomFields]]
    quoteState: [[QuoteState.svg QuoteState]]
    state: [[StateReference.svg StateReference]]
    purchaseOrderNumber: String
    businessUnit: [[BusinessUnitKeyReference.svg BusinessUnitKeyReference]]
}
interface Review [[Review.svg]]  {
    id: String
    version: Long
    createdAt: DateTime
    lastModifiedAt: DateTime
    lastModifiedBy: [[LastModifiedBy.svg LastModifiedBy]]
    createdBy: [[CreatedBy.svg CreatedBy]]
    key: String
    uniquenessValue: String
    locale: String
    authorName: String
    title: String
    text: String
    target: [[Object.svg Object]]
    includedInStatistics: Boolean
    rating: Integer
    state: [[StateReference.svg StateReference]]
    customer: [[CustomerReference.svg CustomerReference]]
    custom: [[CustomFields.svg CustomFields]]
}
interface ShippingMethod [[ShippingMethod.svg]]  {
    id: String
    version: Long
    createdAt: DateTime
    lastModifiedAt: DateTime
    lastModifiedBy: [[LastModifiedBy.svg LastModifiedBy]]
    createdBy: [[CreatedBy.svg CreatedBy]]
    key: String
    name: String
    localizedName: [[LocalizedString.svg LocalizedString]]
    description: String
    localizedDescription: [[LocalizedString.svg LocalizedString]]
    taxCategory: [[TaxCategoryReference.svg TaxCategoryReference]]
    zoneRates: [[ZoneRate.svg List<ZoneRate>]]
    isDefault: Boolean
    predicate: String
    custom: [[CustomFields.svg CustomFields]]
}
interface ShoppingList [[ShoppingList.svg]]  {
    id: String
    version: Long
    createdAt: DateTime
    lastModifiedAt: DateTime
    name: [[LocalizedString.svg LocalizedString]]
    key: String
    customer: [[CustomerReference.svg CustomerReference]]
    slug: [[LocalizedString.svg LocalizedString]]
    description: [[LocalizedString.svg LocalizedString]]
    lineItems: [[ShoppingListLineItem.svg List<ShoppingListLineItem>]]
    textLineItems: [[TextLineItem.svg List<TextLineItem>]]
    deleteDaysAfterLastModification: Long
    anonymousId: String
    store: [[StoreKeyReference.svg StoreKeyReference]]
    custom: [[CustomFields.svg CustomFields]]
    lastModifiedBy: [[LastModifiedBy.svg LastModifiedBy]]
    createdBy: [[CreatedBy.svg CreatedBy]]
}
interface ShoppingListLineItem [[ShoppingListLineItem.svg]]  {
    addedAt: DateTime
    custom: [[CustomFields.svg CustomFields]]
    deactivatedAt: DateTime
    id: String
    name: [[LocalizedString.svg LocalizedString]]
    productId: String
    productType: [[ProductTypeReference.svg ProductTypeReference]]
    quantity: Long
    variantId: Long
    variant: [[ProductVariant.svg ProductVariant]]
    productSlug: [[LocalizedString.svg LocalizedString]]
}
interface TextLineItem [[TextLineItem.svg]]  {
    addedAt: DateTime
    custom: [[CustomFields.svg CustomFields]]
    description: [[LocalizedString.svg LocalizedString]]
    id: String
    name: [[LocalizedString.svg LocalizedString]]
    quantity: Long
}
interface StagedQuote [[StagedQuote.svg]]  {
    id: String
    version: Long
    createdAt: DateTime
    lastModifiedAt: DateTime
    key: String
    lastModifiedBy: [[LastModifiedBy.svg LastModifiedBy]]
    createdBy: [[CreatedBy.svg CreatedBy]]
    stagedQuoteState: [[StagedQuoteState.svg StagedQuoteState]]
    customer: [[CustomerReference.svg CustomerReference]]
    quoteRequest: [[QuoteRequestReference.svg QuoteRequestReference]]
    quotationCart: [[CartReference.svg CartReference]]
    validTo: DateTime
    sellerComment: String
    custom: [[CustomFields.svg CustomFields]]
    state: [[StateReference.svg StateReference]]
    purchaseOrderNumber: String
    businessUnit: [[BusinessUnitKeyReference.svg BusinessUnitKeyReference]]
}
interface StandalonePrice [[StandalonePrice.svg]]  {
    id: String
    version: Long
    createdAt: DateTime
    lastModifiedAt: DateTime
    lastModifiedBy: [[LastModifiedBy.svg LastModifiedBy]]
    createdBy: [[CreatedBy.svg CreatedBy]]
    key: String
    sku: String
    value: [[TypedMoney.svg TypedMoney]]
    country: String
    customerGroup: [[CustomerGroupReference.svg CustomerGroupReference]]
    channel: [[ChannelReference.svg ChannelReference]]
    validFrom: DateTime
    validUntil: DateTime
    tiers: [[PriceTier.svg List<PriceTier>]]
    discounted: [[DiscountedPrice.svg DiscountedPrice]]
    custom: [[CustomFields.svg CustomFields]]
    staged: [[StagedStandalonePrice.svg StagedStandalonePrice]]
    active: Boolean
}
interface Store [[Store.svg]]  {
    id: String
    version: Long
    createdAt: DateTime
    lastModifiedAt: DateTime
    lastModifiedBy: [[LastModifiedBy.svg LastModifiedBy]]
    createdBy: [[CreatedBy.svg CreatedBy]]
    key: String
    name: [[LocalizedString.svg LocalizedString]]
    languages: [[String.svg List<String>]]
    countries: [[StoreCountry.svg List<StoreCountry>]]
    distributionChannels: [[ChannelReference.svg List<ChannelReference>]]
    supplyChannels: [[ChannelReference.svg List<ChannelReference>]]
    productSelections: [[ProductSelectionSetting.svg List<ProductSelectionSetting>]]
    custom: [[CustomFields.svg CustomFields]]
}

CustomFields --> Payment #green;text:green : "interfaceInteractions"
CustomFields --> AssociateRole #green;text:green : "custom"
CustomFields --> BusinessUnit #green;text:green : "custom"
CustomFields --> CartDiscount #green;text:green : "custom"
CustomFields --> Cart #green;text:green : "custom"
CustomFields --> CustomLineItem #green;text:green : "custom"
CustomFields --> LineItem #green;text:green : "custom"
CustomFields --> Shipping #green;text:green : "shippingCustomFields"
CustomFields --> Category #green;text:green : "custom"
CustomFields --> Channel #green;text:green : "custom"
CustomFields --> Address #green;text:green : "custom"
CustomFields --> Asset #green;text:green : "custom"
CustomFields --> Price #green;text:green : "custom"
CustomFields --> QueryPrice #green;text:green : "custom"
CustomFields --> ScopedPrice #green;text:green : "custom"
CustomFields --> CustomerGroup #green;text:green : "custom"
CustomFields --> Customer #green;text:green : "custom"
CustomFields --> DiscountCode #green;text:green : "custom"
CustomFields --> InventoryEntry #green;text:green : "custom"
CustomFields --> MyBusinessUnitDraft #green;text:green : "custom"
CustomFields --> MyPayment #green;text:green : "custom"
CustomFields --> PaymentInteractionAddedMessage #green;text:green : "interaction"
CustomFields --> StoreCreatedMessage #green;text:green : "custom"
CustomFields --> PaymentInteractionAddedMessagePayload #green;text:green : "interaction"
CustomFields --> StoreCreatedMessagePayload #green;text:green : "custom"
CustomFields --> OrderEdit #green;text:green : "custom"
CustomFields --> Delivery #green;text:green : "custom"
CustomFields --> Order #green;text:green : "custom"
CustomFields --> Parcel #green;text:green : "custom"
CustomFields --> ReturnItem #green;text:green : "custom"
CustomFields --> Payment #green;text:green : "custom"
CustomFields --> Transaction #green;text:green : "custom"
CustomFields --> ProductSelection #green;text:green : "custom"
CustomFields --> QuoteRequest #green;text:green : "custom"
CustomFields --> Quote #green;text:green : "custom"
CustomFields --> Review #green;text:green : "custom"
CustomFields --> ShippingMethod #green;text:green : "custom"
CustomFields --> ShoppingList #green;text:green : "custom"
CustomFields --> ShoppingListLineItem #green;text:green : "custom"
CustomFields --> TextLineItem #green;text:green : "custom"
CustomFields --> StagedQuote #green;text:green : "custom"
CustomFields --> StandalonePrice #green;text:green : "custom"
CustomFields --> Store #green;text:green : "custom"
@enduml
