@startuml

hide methods
enum Permission {
    ADD_CHILD_UNITS
    UPDATE_ASSOCIATES
    UPDATE_BUSINESS_UNIT_DETAILS
    UPDATE_PARENT_UNIT
    CREATE_MY_CARTS
    CREATE_OTHERS_CARTS
    UPDATE_MY_CARTS
    UPDATE_OTHERS_CARTS
    VIEW_MY_CARTS
    VIEW_OTHERS_CARTS
    CREATE_MY_ORDERS_FROM_MY_CARTS
    CREATE_MY_ORDERS_FROM_MY_QUOTES
    CREATE_ORDERS_FROM_OTHERS_CARTS
    CREATE_ORDERS_FROM_OTHERS_QUOTES
    UPDATE_MY_ORDERS
    UPDATE_OTHERS_ORDERS
    VIEW_MY_ORDERS
    VIEW_OTHERS_ORDERS
    ACCEPT_MY_QUOTES
    ACCEPT_OTHERS_QUOTES
    DECLINE_MY_QUOTES
    DECLINE_OTHERS_QUOTES
    RENEGOTIATE_MY_QUOTES
    RENEGOTIATE_OTHERS_QUOTES
    VIEW_MY_QUOTES
    VIEW_OTHERS_QUOTES
    CREATE_MY_QUOTE_REQUESTS_FROM_MY_CARTS
    CREATE_QUOTE_REQUESTS_FROM_OTHERS_CARTS
    UPDATE_MY_QUOTE_REQUESTS
    UPDATE_OTHERS_QUOTE_REQUESTS
    VIEW_MY_QUOTE_REQUESTS
    VIEW_OTHERS_QUOTE_REQUESTS
}
interface AssociateRole [[AssociateRole.svg]]  {
    id: String
    version: Long
    createdAt: DateTime
    lastModifiedAt: DateTime
    lastModifiedBy: [[LastModifiedBy.svg LastModifiedBy]]
    createdBy: [[CreatedBy.svg CreatedBy]]
    key: String
    buyerAssignable: Boolean
    name: String
    permissions: [[Permission.svg List<Permission>]]
    custom: [[CustomFields.svg CustomFields]]
}
interface AssociateRoleDraft [[AssociateRoleDraft.svg]]  {
    key: String
    name: String
    buyerAssignable: Boolean
    permissions: [[Permission.svg List<Permission>]]
    custom: [[CustomFieldsDraft.svg CustomFieldsDraft]]
}
interface AssociateRoleAddPermissionAction [[AssociateRoleAddPermissionAction.svg]]  {
    action: String
    permission: [[Permission.svg Permission]]
}
interface AssociateRoleRemovePermissionAction [[AssociateRoleRemovePermissionAction.svg]]  {
    action: String
    permission: [[Permission.svg Permission]]
}
interface AssociateRoleSetPermissionsAction [[AssociateRoleSetPermissionsAction.svg]]  {
    action: String
    permissions: [[Permission.svg List<Permission>]]
}
interface AssociateRolePermissionAddedMessage [[AssociateRolePermissionAddedMessage.svg]]  {
    id: String
    version: Long
    createdAt: DateTime
    lastModifiedAt: DateTime
    lastModifiedBy: [[LastModifiedBy.svg LastModifiedBy]]
    createdBy: [[CreatedBy.svg CreatedBy]]
    sequenceNumber: Long
    resource: [[Reference.svg Reference]]
    resourceVersion: Long
    type: String
    resourceUserProvidedIdentifiers: [[UserProvidedIdentifiers.svg UserProvidedIdentifiers]]
    permission: [[Permission.svg Permission]]
}
interface AssociateRolePermissionRemovedMessage [[AssociateRolePermissionRemovedMessage.svg]]  {
    id: String
    version: Long
    createdAt: DateTime
    lastModifiedAt: DateTime
    lastModifiedBy: [[LastModifiedBy.svg LastModifiedBy]]
    createdBy: [[CreatedBy.svg CreatedBy]]
    sequenceNumber: Long
    resource: [[Reference.svg Reference]]
    resourceVersion: Long
    type: String
    resourceUserProvidedIdentifiers: [[UserProvidedIdentifiers.svg UserProvidedIdentifiers]]
    permission: [[Permission.svg Permission]]
}
interface AssociateRolePermissionsSetMessage [[AssociateRolePermissionsSetMessage.svg]]  {
    id: String
    version: Long
    createdAt: DateTime
    lastModifiedAt: DateTime
    lastModifiedBy: [[LastModifiedBy.svg LastModifiedBy]]
    createdBy: [[CreatedBy.svg CreatedBy]]
    sequenceNumber: Long
    resource: [[Reference.svg Reference]]
    resourceVersion: Long
    type: String
    resourceUserProvidedIdentifiers: [[UserProvidedIdentifiers.svg UserProvidedIdentifiers]]
    permissions: [[Permission.svg List<Permission>]]
}
interface AssociateRolePermissionAddedMessagePayload [[AssociateRolePermissionAddedMessagePayload.svg]]  {
    type: String
    permission: [[Permission.svg Permission]]
}
interface AssociateRolePermissionRemovedMessagePayload [[AssociateRolePermissionRemovedMessagePayload.svg]]  {
    type: String
    permission: [[Permission.svg Permission]]
}
interface AssociateRolePermissionsSetMessagePayload [[AssociateRolePermissionsSetMessagePayload.svg]]  {
    type: String
    permissions: [[Permission.svg List<Permission>]]
}
Permission --> AssociateRole #green;text:green : "permissions"
Permission --> AssociateRoleDraft #green;text:green : "permissions"
Permission --> AssociateRoleAddPermissionAction #green;text:green : "permission"
Permission --> AssociateRoleRemovePermissionAction #green;text:green : "permission"
Permission --> AssociateRoleSetPermissionsAction #green;text:green : "permissions"
Permission --> AssociateRolePermissionAddedMessage #green;text:green : "permission"
Permission --> AssociateRolePermissionRemovedMessage #green;text:green : "permission"
Permission --> AssociateRolePermissionsSetMessage #green;text:green : "permissions"
Permission --> AssociateRolePermissionAddedMessagePayload #green;text:green : "permission"
Permission --> AssociateRolePermissionRemovedMessagePayload #green;text:green : "permission"
Permission --> AssociateRolePermissionsSetMessagePayload #green;text:green : "permissions"
@enduml
